<?xml version="1.0" standalone="no"?>
<!DOCTYPE svg PUBLIC "-//W3C//DTD SVG 20010904//EN"
 "http://www.w3.org/TR/2001/REC-SVG-20010904/DTD/svg10.dtd">
<svg version="1.0" xmlns="http://www.w3.org/2000/svg"
 width="700.000000pt" height="700.000000pt" viewBox="0 0 700.000000 700.000000"
 preserveAspectRatio="xMidYMid meet">
<metadata>
Created by potrace 1.14, written by Peter Selinger 2001-2017
</metadata>
<g transform="translate(0.000000,700.000000) scale(0.100000,-0.100000)"
fill="#000000" stroke="none">
<path d="M3275 6994 c-678 -54 -1279 -269 -1809 -646 -297 -212 -599 -515
-814 -815 -343 -479 -550 -1018 -628 -1628 -25 -195 -25 -615 0 -810 78 -610
285 -1149 628 -1628 237 -331 561 -645 898 -871 456 -305 935 -486 1504 -568
150 -22 161 -22 2049 -25 l1897 -4 0 281 0 280 -796 2 -795 3 91 63 c305 212
629 532 847 837 351 491 559 1039 635 1670 16 136 16 592 0 730 -86 725 -352
1347 -803 1885 -122 145 -351 370 -494 484 -510 407 -1118 661 -1775 742 -119
15 -529 26 -635 18z m410 -1290 c135 -36 289 -138 371 -247 54 -71 115 -197
135 -277 22 -90 18 -261 -10 -350 -75 -246 -245 -416 -491 -491 -88 -27 -259
-32 -350 -10 -78 19 -225 92 -292 146 -151 121 -258 348 -258 545 0 144 59
311 153 436 96 127 249 222 417 259 79 18 238 13 325 -11z m-1567 -1509 c148
-30 316 -131 407 -243 54 -67 127 -214 146 -292 18 -71 17 -250 0 -320 -34
-139 -136 -302 -239 -385 -225 -179 -508 -213 -757 -90 -161 79 -259 178 -336
340 -114 238 -83 507 82 728 64 85 141 146 254 202 145 72 288 91 443 60z
m3082 -10 c78 -20 205 -86 272 -140 104 -83 205 -247 239 -385 17 -70 18 -249
0 -320 -7 -30 -32 -95 -56 -145 -75 -155 -175 -255 -330 -330 -116 -56 -177
-70 -305 -70 -128 0 -189 14 -305 70 -189 91 -312 238 -376 445 -18 59 -23 99
-24 185 0 133 13 192 70 310 75 155 175 254 330 330 50 24 115 48 145 54 30 6
64 13 75 15 37 9 209 -3 265 -19z m-1520 -1520 c30 -8 91 -32 135 -54 147 -74
247 -175 320 -326 56 -116 70 -177 70 -305 0 -128 -14 -189 -70 -305 -73 -151
-173 -252 -320 -326 -206 -103 -417 -104 -620 -4 -161 79 -259 178 -336 340
-114 238 -82 511 85 732 102 135 279 237 461 267 52 8 218 -3 275 -19z"/>
</g>
</svg>
