<svg xmlns="http://www.w3.org/2000/svg" xml:space="preserve" viewBox="0 0 495 495">
  <path d="M247.5 495H495v-40H382.432c-38.813 25.291-85.152 40-134.932 40z" style="fill:#2488ff"/>
  <path d="M247.5 405c-27.57 0-50-22.43-50-50s22.43-50 50-50V190c-27.57 0-50-22.43-50-50s22.43-50 50-50V0C110.81 0 0 110.81 0 247.5S110.81 495 247.5 495v-90zM140 297.5c-27.57 0-50-22.43-50-50s22.43-50 50-50 50 22.43 50 50-22.43 50-50 50z" style="fill:#00479b"/>
  <path d="M495 247.5C495 110.81 384.19 0 247.5 0v90c27.57 0 50 22.43 50 50s-22.43 50-50 50v115c27.57 0 50 22.43 50 50s-22.43 50-50 50v90c49.78 0 96.119-14.709 134.932-40C450.195 410.845 495 334.41 495 247.5zm-140-50c27.57 0 50 22.43 50 50s-22.43 50-50 50-50-22.43-50-50 22.43-50 50-50z" style="fill:#003068"/>
  <path d="M197.5 140c0 27.57 22.43 50 50 50s50-22.43 50-50-22.43-50-50-50-50 22.43-50 50zM140 197.5c-27.57 0-50 22.43-50 50s22.43 50 50 50 50-22.43 50-50-22.43-50-50-50zM197.5 355c0 27.57 22.43 50 50 50s50-22.43 50-50-22.43-50-50-50-50 22.43-50 50zM355 297.5c27.57 0 50-22.43 50-50s-22.43-50-50-50-50 22.43-50 50 22.43 50 50 50z" style="fill:#46f8ff"/>
</svg>
